<svg xmlns="http://www.w3.org/2000/svg" version="1.1" xmlns:xlink="http://www.w3.org/1999/xlink" xmlns:svgjs="http://svgjs.dev/svgjs" width="100%" height="100%" viewBox="0 0 1000 600"><rect width="1000" height="600" x="0" y="0" fill="#5f9ea0"/><g><rect width="333.3333333333333" height="333.3333333333333" rx="13.333333333333334" ry="13.333333333333334" y="113.38184442892796" fill="#ffe67c" transform="matrix(1.3712210518140335,0,0,1.3712210518140333,0,-84.00842489758932)" x="91.15962982177734"/><path d="M261.0422689502541 355.0485159841527L202.1221275063221 355.0485159841527L202.1221275063221 205.04851643435305L256.4986025594851 205.04851643435305Q277.32865757171146 205.04851643435305 288.00922402273966 209.88722609724982Q298.68979047376786 214.6964314329338 302.4958486842172 223.93128585053555Q306.2724025674537 233.1661402681373 306.2724025674537 246.23655722340112L306.2724025674537 246.23655722340112Q306.2724025674537 256.2090198213225 302.02377944881266 263.7621275877955Q297.7751563301715 271.34473968148126 287.30112016963284 274.8557546198027L287.30112016963284 274.8557546198027Q300.460050106535 277.8651959955068 307.0100107477733 287.9851802294921Q313.53046706179884 298.1051644634774 313.53046706179884 312.41476316167814L313.53046706179884 312.41476316167814Q313.53046706179884 334.72003453454374 300.99112799636515 344.8695230957418Q288.42228460371865 355.0485159841527 261.0422689502541 355.0485159841527L261.0422689502541 355.0485159841527ZM223.09970415461234 220.71531418434196L223.09970415461234 268.630341577905L261.5733468400842 268.630341577905Q275.7944325566466 268.630341577905 280.6036378923306 262.5819544992841Q285.4128432280146 256.5040630934503 285.4128432280146 246.4430875138906L285.4128432280146 246.4430875138906Q285.4128432280146 235.5559907723729 282.66894079722556 230.06818591079485Q279.9250383664365 224.55087672200403 272.93251281700645 222.63309545317298Q265.9399872675764 220.71531418434196 253.28263089329155 220.71531418434196L253.28263089329155 220.71531418434196L223.09970415461234 220.71531418434196ZM223.09970415461234 282.8514272944675L223.09970415461234 339.5882485246533L259.5080439351892 339.5882485246533Q271.10324452981376 339.5882485246533 278.53833498743563 337.3164153292688Q285.9439211178447 335.01507780667157 289.4844403833789 328.7011517831355Q292.9954553217004 322.3872257595996 292.9954553217004 310.14292996629376L292.9954553217004 310.14292996629376Q292.9954553217004 303.2979260529276 290.66461347189033 297.01350435660436Q288.33377162208035 290.7290826602811 282.196871561821 286.8050071409807Q276.0894758287744 282.8514272944675 264.58278821578824 282.8514272944675L264.58278821578824 282.8514272944675L223.09970415461234 282.8514272944675Z " fill="#5f9ea0" transform="matrix(1.3712210518140335,0,0,1.3712210518140333,0,-84.00842489758932)"/><path d="M529.5119745029846 355.0485159841527L507.8262940015875 355.0485159841527L563.7369940698154 205.04851643435305L582.1181899233804 205.04851643435305L638.1174029732467 355.0485159841527L616.8447830528287 355.0485159841527L606.7838074732688 325.8097277162826L539.6909673913954 325.8097277162826L529.5119745029846 355.0485159841527ZM573.5029263772471 229.03553445834737L545.0607549441223 310.4379732384216L601.5025329021803 310.4379732384216L573.5029263772471 229.03553445834737Z " fill="#ffe67c" transform="matrix(1.3712210518140335,0,0,1.3712210518140333,0,-84.00842489758932)"/></g></svg>